<?xml version="1.0" encoding="UTF-8" standalone="no"?>
<!DOCTYPE svg PUBLIC "-//W3C//DTD SVG 1.1//EN"
 "http://www.w3.org/Graphics/SVG/1.1/DTD/svg11.dtd">
<!-- Generated by graphviz version 2.36.0 (20140111.2315)
 -->
<!-- Title: %3 Pages: 1 -->
<svg width="592pt" height="692pt"
 viewBox="0.00 0.00 592.00 692.00" xmlns="http://www.w3.org/2000/svg" xmlns:xlink="http://www.w3.org/1999/xlink">
<g id="graph0" class="graph" transform="scale(1 1) rotate(0) translate(4 688)">
<title>%3</title>
<polygon fill="white" stroke="none" points="-4,4 -4,-688 588,-688 588,4 -4,4"/>
<!-- 0 -->
<g id="node1" class="node"><title>0</title>
<ellipse fill="none" stroke="black" cx="152" cy="-522" rx="27" ry="18"/>
<text text-anchor="middle" x="152" y="-518.3" font-family="Times,serif" font-size="14.00">0</text>
</g>
<!-- 6 -->
<g id="node2" class="node"><title>6</title>
<ellipse fill="none" stroke="black" cx="339" cy="-450" rx="27" ry="18"/>
<text text-anchor="middle" x="339" y="-446.3" font-family="Times,serif" font-size="14.00">6</text>
</g>
<!-- 0&#45;&gt;6 -->
<g id="edge1" class="edge"><title>0&#45;&gt;6</title>
<path fill="none" stroke="black" d="M175.384,-512.875C204.316,-502.739 255.02,-484.702 298,-468 300.922,-466.864 303.951,-465.66 306.98,-464.438"/>
<polygon fill="black" stroke="black" points="308.587,-467.562 316.517,-460.535 305.936,-461.084 308.587,-467.562"/>
</g>
<!-- 7 -->
<g id="node3" class="node"><title>7</title>
<ellipse fill="none" stroke="black" cx="207" cy="-378" rx="27" ry="18"/>
<text text-anchor="middle" x="207" y="-374.3" font-family="Times,serif" font-size="14.00">7</text>
</g>
<!-- 0&#45;&gt;7 -->
<g id="edge2" class="edge"><title>0&#45;&gt;7</title>
<path fill="none" stroke="black" d="M158.417,-504.433C167.846,-480.088 185.541,-434.404 196.774,-405.402"/>
<polygon fill="black" stroke="black" points="200.105,-406.491 200.454,-395.902 193.578,-403.963 200.105,-406.491"/>
</g>
<!-- 8 -->
<g id="node4" class="node"><title>8</title>
<ellipse fill="none" stroke="black" cx="97" cy="-306" rx="27" ry="18"/>
<text text-anchor="middle" x="97" y="-302.3" font-family="Times,serif" font-size="14.00">8</text>
</g>
<!-- 0&#45;&gt;8 -->
<g id="edge3" class="edge"><title>0&#45;&gt;8</title>
<path fill="none" stroke="black" d="M147.422,-503.824C144.668,-493.456 141.106,-479.976 138,-468 125.767,-420.842 111.828,-365.826 103.76,-333.85"/>
<polygon fill="black" stroke="black" points="107.098,-332.775 101.26,-323.934 100.311,-334.486 107.098,-332.775"/>
</g>
<!-- 9 -->
<g id="node5" class="node"><title>9</title>
<ellipse fill="none" stroke="black" cx="59" cy="-234" rx="27" ry="18"/>
<text text-anchor="middle" x="59" y="-230.3" font-family="Times,serif" font-size="14.00">9</text>
</g>
<!-- 0&#45;&gt;9 -->
<g id="edge4" class="edge"><title>0&#45;&gt;9</title>
<path fill="none" stroke="black" d="M141.887,-505.227C121.778,-472.838 77.3059,-395.825 61,-324 56.3596,-303.559 56.0745,-279.798 56.8326,-261.971"/>
<polygon fill="black" stroke="black" points="60.3276,-262.156 57.3919,-251.976 53.3385,-261.765 60.3276,-262.156"/>
</g>
<!-- 10 -->
<g id="node6" class="node"><title>10</title>
<ellipse fill="none" stroke="black" cx="169" cy="-162" rx="27" ry="18"/>
<text text-anchor="middle" x="169" y="-158.3" font-family="Times,serif" font-size="14.00">10</text>
</g>
<!-- 0&#45;&gt;10 -->
<g id="edge5" class="edge"><title>0&#45;&gt;10</title>
<path fill="none" stroke="black" d="M152,-503.951C152,-477.292 152,-424.115 152,-379 152,-379 152,-379 152,-305 152,-264.71 158.83,-218.444 163.832,-189.965"/>
<polygon fill="black" stroke="black" points="167.304,-190.434 165.641,-179.971 160.416,-189.187 167.304,-190.434"/>
</g>
<!-- 11 -->
<g id="node7" class="node"><title>11</title>
<ellipse fill="none" stroke="black" cx="141" cy="-90" rx="27" ry="18"/>
<text text-anchor="middle" x="141" y="-86.3" font-family="Times,serif" font-size="14.00">11</text>
</g>
<!-- 0&#45;&gt;11 -->
<g id="edge6" class="edge"><title>0&#45;&gt;11</title>
<path fill="none" stroke="black" d="M129.244,-512.236C86.8412,-494.248 0,-448.878 0,-379 0,-379 0,-379 0,-233 0,-171.116 68.2636,-126.602 109.795,-105.247"/>
<polygon fill="black" stroke="black" points="111.576,-108.27 118.969,-100.68 108.457,-102.003 111.576,-108.27"/>
</g>
<!-- 12 -->
<g id="node8" class="node"><title>12</title>
<ellipse fill="none" stroke="black" cx="207" cy="-18" rx="27" ry="18"/>
<text text-anchor="middle" x="207" y="-14.3" font-family="Times,serif" font-size="14.00">12</text>
</g>
<!-- 0&#45;&gt;12 -->
<g id="edge7" class="edge"><title>0&#45;&gt;12</title>
<path fill="none" stroke="black" d="M173.208,-510.619C210.521,-490.692 284,-443.289 284,-379 284,-379 284,-379 284,-161 284,-113.728 250.616,-67.144 227.812,-40.8366"/>
<polygon fill="black" stroke="black" points="230.394,-38.4733 221.123,-33.3449 225.172,-43.1354 230.394,-38.4733"/>
</g>
<!-- 6&#45;&gt;7 -->
<g id="edge20" class="edge"><title>6&#45;&gt;7</title>
<path fill="none" stroke="black" d="M318.375,-438.062C296.386,-426.402 261.373,-407.834 236.478,-394.632"/>
<polygon fill="black" stroke="black" points="237.955,-391.454 227.48,-389.861 234.675,-397.638 237.955,-391.454"/>
</g>
<!-- 4 -->
<g id="node12" class="node"><title>4</title>
<ellipse fill="none" stroke="black" cx="404" cy="-378" rx="27" ry="18"/>
<text text-anchor="middle" x="404" y="-374.3" font-family="Times,serif" font-size="14.00">4</text>
</g>
<!-- 6&#45;&gt;4 -->
<g id="edge34" class="edge"><title>6&#45;&gt;4</title>
<path fill="none" stroke="black" d="M348.275,-432.765C356.526,-422.658 368.546,-409.586 379.401,-398.863"/>
<polygon fill="black" stroke="black" points="381.884,-401.332 386.67,-391.88 377.034,-396.284 381.884,-401.332"/>
</g>
<!-- 7&#45;&gt;8 -->
<g id="edge21" class="edge"><title>7&#45;&gt;8</title>
<path fill="none" stroke="black" d="M187.839,-364.807C170.331,-353.665 144.241,-337.062 124.507,-324.504"/>
<polygon fill="black" stroke="black" points="126.257,-321.469 115.941,-319.053 122.499,-327.375 126.257,-321.469"/>
</g>
<!-- 7&#45;&gt;10 -->
<g id="edge22" class="edge"><title>7&#45;&gt;10</title>
<path fill="none" stroke="black" d="M200.273,-360.563C190.167,-323.944 174.141,-235.343 169.16,-190.288"/>
<polygon fill="black" stroke="black" points="172.619,-189.697 168.163,-180.085 165.652,-190.379 172.619,-189.697"/>
</g>
<!-- 7&#45;&gt;12 -->
<g id="edge23" class="edge"><title>7&#45;&gt;12</title>
<path fill="none" stroke="black" d="M214.705,-360.358C226.071,-334.244 246,-281.785 246,-235 246,-235 246,-235 246,-161 246,-119.332 230.192,-73.1632 218.705,-45.114"/>
<polygon fill="black" stroke="black" points="221.819,-43.4928 214.705,-35.6417 215.371,-46.2157 221.819,-43.4928"/>
</g>
<!-- 8&#45;&gt;9 -->
<g id="edge24" class="edge"><title>8&#45;&gt;9</title>
<path fill="none" stroke="black" d="M88.1865,-288.765C83.5823,-280.283 77.845,-269.714 72.6786,-260.197"/>
<polygon fill="black" stroke="black" points="75.6126,-258.266 67.7657,-251.147 69.4607,-261.606 75.6126,-258.266"/>
</g>
<!-- 8&#45;&gt;11 -->
<g id="edge25" class="edge"><title>8&#45;&gt;11</title>
<path fill="none" stroke="black" d="M100.526,-287.849C108.172,-250.662 126.325,-162.374 135.496,-117.772"/>
<polygon fill="black" stroke="black" points="138.932,-118.435 137.518,-107.935 132.076,-117.026 138.932,-118.435"/>
</g>
<!-- 9&#45;&gt;10 -->
<g id="edge26" class="edge"><title>9&#45;&gt;10</title>
<path fill="none" stroke="black" d="M78.1605,-220.807C95.6689,-209.665 121.759,-193.062 141.493,-180.504"/>
<polygon fill="black" stroke="black" points="143.501,-183.375 150.059,-175.053 139.743,-177.469 143.501,-183.375"/>
</g>
<!-- 9&#45;&gt;11 -->
<g id="edge27" class="edge"><title>9&#45;&gt;11</title>
<path fill="none" stroke="black" d="M65.3421,-216.356C72.6212,-198.037 85.4466,-168.003 100,-144 106.28,-133.642 114.235,-122.942 121.462,-113.892"/>
<polygon fill="black" stroke="black" points="124.21,-116.06 127.827,-106.101 118.789,-111.631 124.21,-116.06"/>
</g>
<!-- 9&#45;&gt;12 -->
<g id="edge28" class="edge"><title>9&#45;&gt;12</title>
<path fill="none" stroke="black" d="M59.2463,-215.676C60.6151,-183.448 67.9802,-113.77 105,-72 123.136,-51.5369 151.077,-37.796 173.133,-29.4434"/>
<polygon fill="black" stroke="black" points="174.563,-32.6488 182.796,-25.9801 172.201,-26.0593 174.563,-32.6488"/>
</g>
<!-- 10&#45;&gt;7 -->
<g id="edge32" class="edge"><title>10&#45;&gt;7</title>
<path fill="none" stroke="black" d="M175.783,-179.641C185.889,-216.369 201.855,-304.669 206.834,-349.658"/>
<polygon fill="black" stroke="black" points="203.374,-350.238 207.832,-359.849 210.341,-349.556 203.374,-350.238"/>
</g>
<!-- 10&#45;&gt;11 -->
<g id="edge29" class="edge"><title>10&#45;&gt;11</title>
<path fill="none" stroke="black" d="M157.066,-145.465C152.894,-137.419 148.579,-127.361 145.24,-118.086"/>
<polygon fill="black" stroke="black" points="148.519,-116.853 142.052,-108.461 141.874,-119.054 148.519,-116.853"/>
</g>
<!-- 11&#45;&gt;10 -->
<g id="edge31" class="edge"><title>11&#45;&gt;10</title>
<path fill="none" stroke="black" d="M153.005,-106.671C157.18,-114.743 161.492,-124.814 164.821,-134.084"/>
<polygon fill="black" stroke="black" points="161.536,-135.298 167.994,-143.697 168.183,-133.103 161.536,-135.298"/>
</g>
<!-- 11&#45;&gt;12 -->
<g id="edge30" class="edge"><title>11&#45;&gt;12</title>
<path fill="none" stroke="black" d="M154.997,-74.1548C164.01,-64.5957 175.891,-51.994 186.022,-41.2493"/>
<polygon fill="black" stroke="black" points="188.71,-43.5008 193.023,-33.8238 183.617,-38.6987 188.71,-43.5008"/>
</g>
<!-- 1 -->
<g id="node9" class="node"><title>1</title>
<ellipse fill="none" stroke="black" cx="508" cy="-666" rx="27" ry="18"/>
<text text-anchor="middle" x="508" y="-662.3" font-family="Times,serif" font-size="14.00">1</text>
</g>
<!-- 2 -->
<g id="node10" class="node"><title>2</title>
<ellipse fill="none" stroke="black" cx="508" cy="-594" rx="27" ry="18"/>
<text text-anchor="middle" x="508" y="-590.3" font-family="Times,serif" font-size="14.00">2</text>
</g>
<!-- 1&#45;&gt;2 -->
<g id="edge8" class="edge"><title>1&#45;&gt;2</title>
<path fill="none" stroke="black" d="M502.16,-648.411C501.297,-640.507 501.048,-630.852 501.412,-621.935"/>
<polygon fill="black" stroke="black" points="504.903,-622.179 502.121,-611.956 497.921,-621.683 504.903,-622.179"/>
</g>
<!-- 3 -->
<g id="node11" class="node"><title>3</title>
<ellipse fill="none" stroke="black" cx="453" cy="-522" rx="27" ry="18"/>
<text text-anchor="middle" x="453" y="-518.3" font-family="Times,serif" font-size="14.00">3</text>
</g>
<!-- 1&#45;&gt;3 -->
<g id="edge9" class="edge"><title>1&#45;&gt;3</title>
<path fill="none" stroke="black" d="M495.252,-649.702C487.441,-639.587 477.852,-625.708 472,-612 463.535,-592.172 458.696,-568.196 456.023,-550.127"/>
<polygon fill="black" stroke="black" points="459.461,-549.431 454.656,-539.988 452.523,-550.366 459.461,-549.431"/>
</g>
<!-- 1&#45;&gt;4 -->
<g id="edge10" class="edge"><title>1&#45;&gt;4</title>
<path fill="none" stroke="black" d="M492.25,-651.157C481.268,-641.007 466.722,-626.517 456,-612 434.379,-582.726 427.354,-574.889 417,-540 403.524,-494.592 402.171,-439.017 402.811,-406.458"/>
<polygon fill="black" stroke="black" points="406.313,-406.439 403.09,-396.346 399.315,-406.246 406.313,-406.439"/>
</g>
<!-- 5 -->
<g id="node13" class="node"><title>5</title>
<ellipse fill="none" stroke="black" cx="508" cy="-306" rx="27" ry="18"/>
<text text-anchor="middle" x="508" y="-302.3" font-family="Times,serif" font-size="14.00">5</text>
</g>
<!-- 1&#45;&gt;5 -->
<g id="edge11" class="edge"><title>1&#45;&gt;5</title>
<path fill="none" stroke="black" d="M522.295,-650.228C544.31,-625.85 584,-574.729 584,-523 584,-523 584,-523 584,-449 584,-402.121 551.403,-355.74 528.906,-329.312"/>
<polygon fill="black" stroke="black" points="531.519,-326.984 522.295,-321.772 526.256,-331.599 531.519,-326.984"/>
</g>
<!-- 2&#45;&gt;1 -->
<g id="edge33" class="edge"><title>2&#45;&gt;1</title>
<path fill="none" stroke="black" d="M513.879,-611.956C514.714,-619.827 514.948,-629.374 514.583,-638.187"/>
<polygon fill="black" stroke="black" points="511.074,-638.184 513.84,-648.411 518.056,-638.691 511.074,-638.184"/>
</g>
<!-- 2&#45;&gt;3 -->
<g id="edge12" class="edge"><title>2&#45;&gt;3</title>
<path fill="none" stroke="black" d="M496.066,-577.811C488.786,-568.546 479.337,-556.52 471.146,-546.094"/>
<polygon fill="black" stroke="black" points="473.841,-543.86 464.911,-538.159 468.337,-548.185 473.841,-543.86"/>
</g>
<!-- 2&#45;&gt;4 -->
<g id="edge13" class="edge"><title>2&#45;&gt;4</title>
<path fill="none" stroke="black" d="M506.217,-575.711C503.891,-557.357 498.894,-527.777 489,-504 472.766,-464.987 443.327,-425.6 423.717,-401.743"/>
<polygon fill="black" stroke="black" points="426.326,-399.407 417.228,-393.978 420.955,-403.896 426.326,-399.407"/>
</g>
<!-- 2&#45;&gt;5 -->
<g id="edge14" class="edge"><title>2&#45;&gt;5</title>
<path fill="none" stroke="black" d="M508,-575.966C508,-528.291 508,-393.185 508,-334.63"/>
<polygon fill="black" stroke="black" points="511.5,-334.306 508,-324.306 504.5,-334.306 511.5,-334.306"/>
</g>
<!-- 3&#45;&gt;6 -->
<g id="edge15" class="edge"><title>3&#45;&gt;6</title>
<path fill="none" stroke="black" d="M433.661,-509.125C415.401,-497.913 387.805,-480.968 367.113,-468.263"/>
<polygon fill="black" stroke="black" points="368.787,-465.183 358.433,-462.933 365.124,-471.148 368.787,-465.183"/>
</g>
<!-- 3&#45;&gt;4 -->
<g id="edge16" class="edge"><title>3&#45;&gt;4</title>
<path fill="none" stroke="black" d="M447.187,-504.153C438.751,-479.706 423.038,-434.171 413.07,-405.286"/>
<polygon fill="black" stroke="black" points="416.376,-404.136 409.806,-395.825 409.759,-406.42 416.376,-404.136"/>
</g>
<!-- 3&#45;&gt;5 -->
<g id="edge17" class="edge"><title>3&#45;&gt;5</title>
<path fill="none" stroke="black" d="M457.316,-504.208C466.811,-467.264 489.58,-378.671 501.09,-333.887"/>
<polygon fill="black" stroke="black" points="504.529,-334.567 503.628,-324.01 497.749,-332.824 504.529,-334.567"/>
</g>
<!-- 4&#45;&gt;6 -->
<g id="edge19" class="edge"><title>4&#45;&gt;6</title>
<path fill="none" stroke="black" d="M394.748,-395.208C386.488,-405.329 374.44,-418.43 363.566,-429.169"/>
<polygon fill="black" stroke="black" points="361.074,-426.71 356.286,-436.161 365.923,-431.758 361.074,-426.71"/>
</g>
<!-- 4&#45;&gt;5 -->
<g id="edge18" class="edge"><title>4&#45;&gt;5</title>
<path fill="none" stroke="black" d="M422.593,-364.485C438.861,-353.536 462.694,-337.495 481.052,-325.138"/>
<polygon fill="black" stroke="black" points="483.226,-327.894 489.568,-319.406 479.318,-322.086 483.226,-327.894"/>
</g>
</g>
</svg>
