<?xml version="1.0" encoding="UTF-8" standalone="no"?>
<!DOCTYPE svg PUBLIC "-//W3C//DTD SVG 1.1//EN"
 "http://www.w3.org/Graphics/SVG/1.1/DTD/svg11.dtd">
<!-- Generated by graphviz version 2.36.0 (20140111.2315)
 -->
<!-- Title: %3 Pages: 1 -->
<svg width="314pt" height="332pt"
 viewBox="0.00 0.00 314.00 332.00" xmlns="http://www.w3.org/2000/svg" xmlns:xlink="http://www.w3.org/1999/xlink">
<g id="graph0" class="graph" transform="scale(1 1) rotate(0) translate(4 328)">
<title>%3</title>
<polygon fill="white" stroke="none" points="-4,4 -4,-328 310,-328 310,4 -4,4"/>
<!-- 0 -->
<g id="node1" class="node"><title>0</title>
<ellipse fill="none" stroke="black" cx="207" cy="-306" rx="27" ry="18"/>
<text text-anchor="middle" x="207" y="-302.3" font-family="Times,serif" font-size="14.00">0</text>
</g>
<!-- 1 -->
<g id="node2" class="node"><title>1</title>
<ellipse fill="none" stroke="black" cx="135" cy="-234" rx="27" ry="18"/>
<text text-anchor="middle" x="135" y="-230.3" font-family="Times,serif" font-size="14.00">1</text>
</g>
<!-- 0&#45;&gt;1 -->
<g id="edge1" class="edge"><title>0&#45;&gt;1</title>
<path fill="none" stroke="black" d="M192.43,-290.834C182.25,-280.938 168.476,-267.546 156.969,-256.359"/>
<polygon fill="black" stroke="black" points="159.405,-253.846 149.796,-249.385 154.526,-258.865 159.405,-253.846"/>
</g>
<!-- 2 -->
<g id="node3" class="node"><title>2</title>
<ellipse fill="none" stroke="black" cx="207" cy="-234" rx="27" ry="18"/>
<text text-anchor="middle" x="207" y="-230.3" font-family="Times,serif" font-size="14.00">2</text>
</g>
<!-- 0&#45;&gt;2 -->
<g id="edge2" class="edge"><title>0&#45;&gt;2</title>
<path fill="none" stroke="black" d="M207,-287.697C207,-279.983 207,-270.712 207,-262.112"/>
<polygon fill="black" stroke="black" points="210.5,-262.104 207,-252.104 203.5,-262.104 210.5,-262.104"/>
</g>
<!-- 3 -->
<g id="node4" class="node"><title>3</title>
<ellipse fill="none" stroke="black" cx="279" cy="-234" rx="27" ry="18"/>
<text text-anchor="middle" x="279" y="-230.3" font-family="Times,serif" font-size="14.00">3</text>
</g>
<!-- 0&#45;&gt;3 -->
<g id="edge3" class="edge"><title>0&#45;&gt;3</title>
<path fill="none" stroke="black" d="M221.57,-290.834C231.75,-280.938 245.524,-267.546 257.031,-256.359"/>
<polygon fill="black" stroke="black" points="259.474,-258.865 264.204,-249.385 254.595,-253.846 259.474,-258.865"/>
</g>
<!-- 4 -->
<g id="node5" class="node"><title>4</title>
<ellipse fill="none" stroke="black" cx="63" cy="-162" rx="27" ry="18"/>
<text text-anchor="middle" x="63" y="-158.3" font-family="Times,serif" font-size="14.00">4</text>
</g>
<!-- 1&#45;&gt;4 -->
<g id="edge4" class="edge"><title>1&#45;&gt;4</title>
<path fill="none" stroke="black" d="M120.43,-218.834C110.25,-208.938 96.4761,-195.546 84.9694,-184.359"/>
<polygon fill="black" stroke="black" points="87.4055,-181.846 77.7957,-177.385 82.5259,-186.865 87.4055,-181.846"/>
</g>
<!-- 5 -->
<g id="node6" class="node"><title>5</title>
<ellipse fill="none" stroke="black" cx="135" cy="-162" rx="27" ry="18"/>
<text text-anchor="middle" x="135" y="-158.3" font-family="Times,serif" font-size="14.00">5</text>
</g>
<!-- 1&#45;&gt;5 -->
<g id="edge5" class="edge"><title>1&#45;&gt;5</title>
<path fill="none" stroke="black" d="M135,-215.697C135,-207.983 135,-198.712 135,-190.112"/>
<polygon fill="black" stroke="black" points="138.5,-190.104 135,-180.104 131.5,-190.104 138.5,-190.104"/>
</g>
<!-- 6 -->
<g id="node7" class="node"><title>6</title>
<ellipse fill="none" stroke="black" cx="207" cy="-162" rx="27" ry="18"/>
<text text-anchor="middle" x="207" y="-158.3" font-family="Times,serif" font-size="14.00">6</text>
</g>
<!-- 2&#45;&gt;6 -->
<g id="edge6" class="edge"><title>2&#45;&gt;6</title>
<path fill="none" stroke="black" d="M207,-215.697C207,-207.983 207,-198.712 207,-190.112"/>
<polygon fill="black" stroke="black" points="210.5,-190.104 207,-180.104 203.5,-190.104 210.5,-190.104"/>
</g>
<!-- 10 -->
<g id="node11" class="node"><title>10</title>
<ellipse fill="none" stroke="black" cx="27" cy="-90" rx="27" ry="18"/>
<text text-anchor="middle" x="27" y="-86.3" font-family="Times,serif" font-size="14.00">10</text>
</g>
<!-- 4&#45;&gt;10 -->
<g id="edge10" class="edge"><title>4&#45;&gt;10</title>
<path fill="none" stroke="black" d="M54.6504,-144.765C50.2885,-136.283 44.8531,-125.714 39.9587,-116.197"/>
<polygon fill="black" stroke="black" points="42.9904,-114.439 35.3043,-107.147 36.7654,-117.641 42.9904,-114.439"/>
</g>
<!-- 11 -->
<g id="node12" class="node"><title>11</title>
<ellipse fill="none" stroke="black" cx="99" cy="-90" rx="27" ry="18"/>
<text text-anchor="middle" x="99" y="-86.3" font-family="Times,serif" font-size="14.00">11</text>
</g>
<!-- 4&#45;&gt;11 -->
<g id="edge11" class="edge"><title>4&#45;&gt;11</title>
<path fill="none" stroke="black" d="M71.3496,-144.765C75.7115,-136.283 81.1469,-125.714 86.0413,-116.197"/>
<polygon fill="black" stroke="black" points="89.2346,-117.641 90.6957,-107.147 83.0096,-114.439 89.2346,-117.641"/>
</g>
<!-- 7 -->
<g id="node8" class="node"><title>7</title>
<ellipse fill="none" stroke="black" cx="207" cy="-90" rx="27" ry="18"/>
<text text-anchor="middle" x="207" y="-86.3" font-family="Times,serif" font-size="14.00">7</text>
</g>
<!-- 6&#45;&gt;7 -->
<g id="edge7" class="edge"><title>6&#45;&gt;7</title>
<path fill="none" stroke="black" d="M207,-143.697C207,-135.983 207,-126.712 207,-118.112"/>
<polygon fill="black" stroke="black" points="210.5,-118.104 207,-108.104 203.5,-118.104 210.5,-118.104"/>
</g>
<!-- 8 -->
<g id="node9" class="node"><title>8</title>
<ellipse fill="none" stroke="black" cx="171" cy="-18" rx="27" ry="18"/>
<text text-anchor="middle" x="171" y="-14.3" font-family="Times,serif" font-size="14.00">8</text>
</g>
<!-- 7&#45;&gt;8 -->
<g id="edge8" class="edge"><title>7&#45;&gt;8</title>
<path fill="none" stroke="black" d="M198.65,-72.7646C194.288,-64.2831 188.853,-53.7144 183.959,-44.1974"/>
<polygon fill="black" stroke="black" points="186.99,-42.4395 179.304,-35.1473 180.765,-45.6409 186.99,-42.4395"/>
</g>
<!-- 9 -->
<g id="node10" class="node"><title>9</title>
<ellipse fill="none" stroke="black" cx="243" cy="-18" rx="27" ry="18"/>
<text text-anchor="middle" x="243" y="-14.3" font-family="Times,serif" font-size="14.00">9</text>
</g>
<!-- 7&#45;&gt;9 -->
<g id="edge9" class="edge"><title>7&#45;&gt;9</title>
<path fill="none" stroke="black" d="M215.35,-72.7646C219.712,-64.2831 225.147,-53.7144 230.041,-44.1974"/>
<polygon fill="black" stroke="black" points="233.235,-45.6409 234.696,-35.1473 227.01,-42.4395 233.235,-45.6409"/>
</g>
</g>
</svg>
